<?xml version="1.0" encoding="iso-8859-1"?>
<!-- Generator: Adobe Illustrator 16.0.0, SVG Export Plug-In . SVG Version: 6.00 Build 0)  -->
<!DOCTYPE svg PUBLIC "-//W3C//DTD SVG 1.1//EN" "http://www.w3.org/Graphics/SVG/1.1/DTD/svg11.dtd">
<svg version="1.1" id="Capa_1" xmlns="http://www.w3.org/2000/svg" xmlns:xlink="http://www.w3.org/1999/xlink" x="0px" y="0px"
	 width="32.777px" height="32.777px" viewBox="0 0 32.777 32.777" style="enable-background:new 0 0 32.777 32.777;"
	 xml:space="preserve">
<g>
	<g>
		<path d="M12.838,8.44c1.823,0,3.3-1.479,3.3-3.302c0-0.931-0.388-1.768-1.008-2.368l0.472-1.964L13.83,1.128L13.104,0l-1.935,1.29
			l-1.37-0.565L9.477,2.337l-1.37,0.806L9.54,5.162C9.551,6.973,11.022,8.44,12.838,8.44z"/>
		<polygon points="14.903,26.438 14.047,20.596 9.666,20.714 11.681,26.438 10.411,31.917 10.256,31.917 10.256,32.777 
			15.091,32.777 15.091,31.917 14.101,31.917 		"/>
		<polygon points="14.047,18.564 10.622,15.654 10.594,15.65 10.594,10.214 13.158,10.254 13.149,13.446 14.047,14.351 14.047,8.88 
			9.258,8.88 9.258,20.225 14.047,20.225 		"/>
		<polygon points="15.589,16.38 12.814,13.7 12.769,10.639 11.027,10.626 11.027,15.311 15.396,19.171 15.562,18.955 16.959,18.955 
			16.959,18.592 15.589,18.592 		"/>
		<polygon points="24.071,12.834 24.071,12.653 24.671,12.653 24.671,12.411 15.943,12.411 15.943,12.653 15.948,12.653 
			15.948,14.618 15.943,14.618 15.943,14.858 24.671,14.858 24.671,14.618 24.071,14.618 24.071,14.511 16.558,14.511 
			16.558,14.432 16.548,14.432 16.548,14.386 24.071,14.386 24.071,14.285 16.551,14.285 16.551,14.248 16.548,14.248 
			16.548,14.202 16.551,14.202 16.551,14.186 24.071,14.186 24.071,14.047 16.539,14.047 16.539,14.021 16.535,14.021 
			16.535,13.976 16.539,13.976 16.539,13.948 24.071,13.948 24.071,13.821 16.531,13.821 16.531,13.722 24.071,13.722 
			24.071,13.603 16.531,13.603 16.531,13.503 24.071,13.503 24.071,13.377 16.544,13.377 16.544,13.278 24.071,13.278 
			24.071,13.152 16.539,13.152 16.539,13.053 24.071,13.053 24.071,12.934 16.539,12.934 16.539,12.834 		"/>
		<polygon points="15.943,15.163 15.948,15.163 15.948,16.4 15.943,16.4 15.943,16.552 24.671,16.552 24.671,16.4 24.071,16.4 
			24.071,16.265 16.423,16.265 16.423,16.165 24.071,16.165 24.071,16.046 16.423,16.046 16.423,15.946 24.071,15.946 24.071,15.82 
			16.438,15.82 16.438,15.786 16.436,15.786 16.436,15.74 16.438,15.74 16.438,15.721 24.071,15.721 24.071,15.595 16.431,15.595 
			16.431,15.495 24.071,15.495 24.071,15.376 16.431,15.376 16.431,15.277 24.071,15.277 24.071,15.163 24.671,15.163 
			24.671,15.012 15.943,15.012 		"/>
		<polygon points="15.943,16.948 15.948,16.948 15.948,18.186 15.943,18.186 15.943,18.336 24.671,18.336 24.671,18.186 
			24.071,18.186 24.071,18.066 16.379,18.066 16.379,17.968 24.071,17.968 24.071,17.848 16.379,17.848 16.379,17.75 24.071,17.75 
			24.071,17.623 16.393,17.623 16.393,17.6 16.393,17.6 16.393,17.555 16.393,17.555 16.393,17.523 24.071,17.523 24.071,17.398 
			16.386,17.398 16.386,17.299 24.071,17.299 24.071,17.18 16.386,17.18 16.386,17.08 24.071,17.08 24.071,16.948 24.671,16.948 
			24.671,16.797 15.943,16.797 		"/>
		<polygon points="23.565,12.122 23.103,12.122 23.103,12.015 17.22,12.015 17.22,11.916 23.103,11.916 23.103,11.796 17.22,11.796 
			17.22,11.697 23.103,11.697 23.103,11.571 17.231,11.571 17.231,11.516 17.224,11.516 17.224,11.471 23.103,11.471 23.103,11.345 
			17.226,11.345 17.226,11.303 17.224,11.303 17.224,11.258 17.226,11.258 17.226,11.246 23.103,11.246 23.103,11.126 
			17.226,11.126 17.226,11.077 17.224,11.077 17.224,11.032 17.226,11.032 17.226,11.027 23.103,11.027 23.103,10.884 
			23.565,10.884 23.565,10.733 16.822,10.733 16.822,10.884 16.826,10.884 16.826,12.122 16.822,12.122 16.822,12.273 
			23.565,12.273 		"/>
	</g>
</g>
<g>
</g>
<g>
</g>
<g>
</g>
<g>
</g>
<g>
</g>
<g>
</g>
<g>
</g>
<g>
</g>
<g>
</g>
<g>
</g>
<g>
</g>
<g>
</g>
<g>
</g>
<g>
</g>
<g>
</g>
</svg>
